<svg xmlns="http://www.w3.org/2000/svg" viewBox="0 0 442.2 442.2" enable-background="new 0 0 442.2 442.2"><linearGradient id="a" gradientUnits="userSpaceOnUse" x1="97.776" y1="149.738" x2="97.776" y2="303.568"><stop offset="0" stop-color="#F7941E"/><stop offset="1" stop-color="#D9356B"/></linearGradient><path fill="url(#a)" d="M93.1 192.8c-4 0-6.7 2.5-6 5.5l8 36.5c.6 2.6 4 4.8 7.7 4.8s6.2-2.1 5.7-4.8l-7.2-36.5c-.6-3-4.3-5.5-8.2-5.5z"/><linearGradient id="b" gradientUnits="userSpaceOnUse" x1="114.494" y1="149.738" x2="114.494" y2="303.568"><stop offset="0" stop-color="#F7941E"/><stop offset="1" stop-color="#D9356B"/></linearGradient><path fill="url(#b)" d="M104 142.9c-4.3 0-7.2 2.9-6.6 6.4l21.4 113.9c.4 2.4 3.7 4.3 7.1 4.3 3.5 0 6-1.9 5.6-4.3l-18.8-113.9c-.4-3.5-4.4-6.4-8.7-6.4z"/><linearGradient id="c" gradientUnits="userSpaceOnUse" x1="135.212" y1="149.738" x2="135.212" y2="303.568"><stop offset="0" stop-color="#F7941E"/><stop offset="1" stop-color="#D9356B"/></linearGradient><path fill="url(#c)" d="M126.6 151.7c-4.2 0-7.2 2.8-6.7 6.3l18.1 115.8c.4 2.3 3.4 4.2 6.9 4.2 3.4 0 6-1.9 5.7-4.2l-15.4-115.8c-.5-3.4-4.3-6.3-8.6-6.3z"/><linearGradient id="d" gradientUnits="userSpaceOnUse" x1="153.046" y1="149.738" x2="153.046" y2="303.568"><stop offset="0" stop-color="#F7941E"/><stop offset="1" stop-color="#D9356B"/></linearGradient><path fill="url(#d)" d="M145 127.1c-4.4 0-7.6 3.1-7.1 6.7l18.1 146c.3 2.2 3.3 4.1 6.6 4.1 3.4 0 6-1.8 5.7-4.1l-14.7-146c-.4-3.6-4.3-6.7-8.6-6.7z"/><linearGradient id="e" gradientUnits="userSpaceOnUse" x1="136.096" y1="149.738" x2="136.096" y2="303.568"><stop offset="0" stop-color="#F7941E"/><stop offset="1" stop-color="#D9356B"/></linearGradient><path fill="url(#e)" d="M133.8 311.7c-3.2 0-5.5 1.6-5.1 3.6l3.9 20.5c.3 1.8 3.1 3.3 6.1 3.3 3 0 5.3-1.5 5-3.3l-3.4-20.5c-.4-2-3.3-3.6-6.5-3.6z"/><linearGradient id="f" gradientUnits="userSpaceOnUse" x1="151.675" y1="149.738" x2="151.675" y2="303.568"><stop offset="0" stop-color="#F7941E"/><stop offset="1" stop-color="#D9356B"/></linearGradient><path fill="url(#f)" d="M149.2 308c-3.2 0-5.6 1.6-5.3 3.6l4.6 29.6c.3 1.8 2.9 3.2 5.9 3.2 3 0 5.2-1.4 5-3.2l-3.9-29.6c-.2-2-3.1-3.6-6.3-3.6z"/><linearGradient id="g" gradientUnits="userSpaceOnUse" x1="167.538" y1="149.738" x2="167.538" y2="303.568"><stop offset="0" stop-color="#F7941E"/><stop offset="1" stop-color="#D9356B"/></linearGradient><path fill="url(#g)" d="M165.6 311.3c-3.2 0-5.6 1.6-5.4 3.6l3.7 29.8c.2 1.7 2.8 3.1 5.8 3.1s5.2-1.4 5.1-3.1l-3-29.8c-.2-2-3-3.6-6.2-3.6z"/><linearGradient id="h" gradientUnits="userSpaceOnUse" x1="167.356" y1="149.738" x2="167.356" y2="303.568"><stop offset="0" stop-color="#F7941E"/><stop offset="1" stop-color="#D9356B"/></linearGradient><path fill="url(#h)" d="M163.9 91.2c-4.6 0-8.1 3.4-7.7 7.5l7.6 82.4c.3 3.2 3.8 5.7 7.8 5.7s7.1-2.6 6.9-5.7l-5.6-82.4c-.3-4.2-4.3-7.5-9-7.5z"/><linearGradient id="i" gradientUnits="userSpaceOnUse" x1="189.018" y1="149.738" x2="189.018" y2="303.568"><stop offset="0" stop-color="#F7941E"/><stop offset="1" stop-color="#D9356B"/></linearGradient><path fill="url(#i)" d="M187.6 103.9c-4.5 0-8 3.3-7.8 7.2l3.6 60.2c.2 3.3 3.7 5.9 7.7 5.9 4.1 0 7.3-2.6 7.2-5.9l-2.2-60.2c-.2-3.9-4-7.2-8.5-7.2z"/><linearGradient id="j" gradientUnits="userSpaceOnUse" x1="209.948" y1="149.738" x2="209.948" y2="303.568"><stop offset="0" stop-color="#F7941E"/><stop offset="1" stop-color="#D9356B"/></linearGradient><path fill="url(#j)" d="M209.6 68.5c-4.8 0-8.6 3.6-8.4 7.9l2.5 91.1c.1 3.3 3.5 6 7.6 6s7.4-2.7 7.4-6l-.4-91.1c0-4.4-3.9-7.9-8.7-7.9z"/><linearGradient id="k" gradientUnits="userSpaceOnUse" x1="232.543" y1="149.738" x2="232.543" y2="303.568"><stop offset="0" stop-color="#F7941E"/><stop offset="1" stop-color="#D9356B"/></linearGradient><path fill="url(#k)" d="M232.8 105.7c-4.5 0-8.2 3.2-8.3 7.2l-.2 54.6c0 3.3 3.3 6 7.4 6 4.1 0 7.5-2.7 7.6-6l1.5-54.6c.1-3.9-3.5-7.2-8-7.2z"/><linearGradient id="l" gradientUnits="userSpaceOnUse" x1="254.144" y1="149.738" x2="254.144" y2="303.568"><stop offset="0" stop-color="#F7941E"/><stop offset="1" stop-color="#D9356B"/></linearGradient><path fill="url(#l)" d="M255.7 98.4c-4.6 0-8.4 3.3-8.6 7.3l-2.4 65.3c-.1 3.3 3.1 5.9 7.2 5.9s7.5-2.6 7.7-5.9l3.9-65.3c.3-4-3.2-7.3-7.8-7.3z"/><linearGradient id="m" gradientUnits="userSpaceOnUse" x1="275.838" y1="149.738" x2="275.838" y2="303.568"><stop offset="0" stop-color="#F7941E"/><stop offset="1" stop-color="#D9356B"/></linearGradient><path fill="url(#m)" d="M279.4 87.4c-4.6 0-8.7 3.4-9 7.5l-5.8 85.3c-.2 3.2 2.9 5.7 6.9 5.7s7.5-2.6 7.8-5.7l7.8-85.3c.4-4.1-3.1-7.5-7.7-7.5z"/><linearGradient id="n" gradientUnits="userSpaceOnUse" x1="177.581" y1="149.738" x2="177.581" y2="303.568"><stop offset="0" stop-color="#F7941E"/><stop offset="1" stop-color="#D9356B"/></linearGradient><path fill="url(#n)" d="M175.9 240.1c-3.7 0-6.5 2.1-6.2 4.7l3.5 38.6c.2 2.2 3.1 4 6.5 4s6-1.8 5.8-4l-2.6-38.6c-.2-2.6-3.4-4.7-7-4.7z"/><linearGradient id="o" gradientUnits="userSpaceOnUse" x1="195.323" y1="149.738" x2="195.323" y2="303.568"><stop offset="0" stop-color="#F7941E"/><stop offset="1" stop-color="#D9356B"/></linearGradient><path fill="url(#o)" d="M194.5 248c-3.6 0-6.4 2.1-6.3 4.6l2 32.7c.1 2.2 3 4 6.3 4s6-1.8 5.9-4l-1.2-32.7c-.1-2.6-3.1-4.6-6.7-4.6z"/><linearGradient id="p" gradientUnits="userSpaceOnUse" x1="212.689" y1="149.738" x2="212.689" y2="303.568"><stop offset="0" stop-color="#F7941E"/><stop offset="1" stop-color="#D9356B"/></linearGradient><path fill="url(#p)" d="M212.6 251c-3.6 0-6.5 2-6.4 4.5l.8 30.1c.1 2.2 2.8 4 6.2 4 3.3 0 6.1-1.8 6.1-4l-.1-30.1c-.1-2.4-3.1-4.5-6.6-4.5z"/><linearGradient id="q" gradientUnits="userSpaceOnUse" x1="230.309" y1="149.738" x2="230.309" y2="303.568"><stop offset="0" stop-color="#F7941E"/><stop offset="1" stop-color="#D9356B"/></linearGradient><path fill="url(#q)" d="M230.4 251.2c-3.6 0-6.5 2-6.5 4.5l-.1 29c0 2.2 2.7 4 6.1 4 3.3 0 6.1-1.8 6.2-4l.8-29c0-2.5-2.9-4.5-6.5-4.5z"/><linearGradient id="r" gradientUnits="userSpaceOnUse" x1="247.718" y1="149.738" x2="247.718" y2="303.568"><stop offset="0" stop-color="#F7941E"/><stop offset="1" stop-color="#D9356B"/></linearGradient><path fill="url(#r)" d="M248.5 248.6c-3.6 0-6.6 2.1-6.7 4.6l-1 28.7c-.1 2.2 2.6 4 6 4s6.2-1.8 6.4-4l1.7-28.7c0-2.6-2.8-4.6-6.4-4.6z"/><linearGradient id="s" gradientUnits="userSpaceOnUse" x1="265.599" y1="149.738" x2="265.599" y2="303.568"><stop offset="0" stop-color="#F7941E"/><stop offset="1" stop-color="#D9356B"/></linearGradient><path fill="url(#s)" d="M267 241.7c-3.6 0-6.8 2.1-7 4.7l-2 29.5c-.2 2.3 2.5 4.1 5.9 4.1 3.4 0 6.4-1.9 6.6-4.1l2.7-29.5c.2-2.6-2.6-4.7-6.2-4.7z"/><linearGradient id="t" gradientUnits="userSpaceOnUse" x1="183.188" y1="149.738" x2="183.188" y2="303.568"><stop offset="0" stop-color="#F7941E"/><stop offset="1" stop-color="#D9356B"/></linearGradient><path fill="url(#t)" d="M182 315.9c-3.2 0-5.6 1.6-5.4 3.5l2.5 27.6c.2 1.7 2.7 3.1 5.6 3.1 3 0 5.3-1.4 5.2-3.1l-1.9-27.6c-.2-1.9-2.9-3.5-6-3.5z"/><linearGradient id="u" gradientUnits="userSpaceOnUse" x1="198.538" y1="149.738" x2="198.538" y2="303.568"><stop offset="0" stop-color="#F7941E"/><stop offset="1" stop-color="#D9356B"/></linearGradient><path fill="url(#u)" d="M197.9 318.3c-3.2 0-5.6 1.6-5.5 3.5l1.6 26.3c.1 1.7 2.6 3.1 5.5 3.1s5.3-1.4 5.2-3.1l-1-26.3c0-2-2.7-3.5-5.8-3.5z"/><linearGradient id="v" gradientUnits="userSpaceOnUse" x1="213.752" y1="149.738" x2="213.752" y2="303.568"><stop offset="0" stop-color="#F7941E"/><stop offset="1" stop-color="#D9356B"/></linearGradient><path fill="url(#v)" d="M213.6 318.9c-3.2 0-5.7 1.6-5.6 3.5l.7 25.9c0 1.7 2.5 3.1 5.4 3.1 2.9 0 5.3-1.4 5.3-3.1l-.1-25.9c.1-1.9-2.5-3.5-5.7-3.5z"/><linearGradient id="w" gradientUnits="userSpaceOnUse" x1="229.264" y1="149.738" x2="229.264" y2="303.568"><stop offset="0" stop-color="#F7941E"/><stop offset="1" stop-color="#D9356B"/></linearGradient><path fill="url(#w)" d="M229.4 317.6c-3.2 0-5.8 1.6-5.8 3.5l-.1 26.5c0 1.7 2.4 3.1 5.3 3.1s5.4-1.4 5.4-3.1l.7-26.5c.2-1.9-2.4-3.5-5.5-3.5z"/><linearGradient id="x" gradientUnits="userSpaceOnUse" x1="244.645" y1="149.738" x2="244.645" y2="303.568"><stop offset="0" stop-color="#F7941E"/><stop offset="1" stop-color="#D9356B"/></linearGradient><path fill="url(#x)" d="M245.3 313.3c-3.2 0-5.9 1.6-5.9 3.6l-1.1 29c-.1 1.7 2.3 3.1 5.3 3.1s5.5-1.4 5.6-3.1l1.7-29c.1-2-2.4-3.6-5.6-3.6z"/><linearGradient id="y" gradientUnits="userSpaceOnUse" x1="260.519" y1="149.738" x2="260.519" y2="303.568"><stop offset="0" stop-color="#F7941E"/><stop offset="1" stop-color="#D9356B"/></linearGradient><path fill="url(#y)" d="M262 303.4c-3.3 0-6 1.7-6.2 3.7l-2.4 35.6c-.1 1.7 2.2 3.2 5.2 3.2s5.5-1.4 5.7-3.2l3.3-35.6c.2-2-2.3-3.7-5.6-3.7z"/><linearGradient id="z" gradientUnits="userSpaceOnUse" x1="287.6" y1="149.738" x2="287.6" y2="303.568"><stop offset="0" stop-color="#F7941E"/><stop offset="1" stop-color="#D9356B"/></linearGradient><path fill="url(#z)" d="M299.1 118.1c-4.4 0-8.4 3.1-8.8 6.9l-21.4 212.7c-.2 1.8 2.1 3.2 5.1 3.2s5.7-1.4 5.9-3.2l26.4-212.7c.4-3.8-2.8-6.9-7.2-6.9z"/><linearGradient id="A" gradientUnits="userSpaceOnUse" x1="305.849" y1="149.738" x2="305.849" y2="303.568"><stop offset="0" stop-color="#F7941E"/><stop offset="1" stop-color="#D9356B"/></linearGradient><path fill="url(#A)" d="M319.7 128.7c-4.4 0-8.4 3-8.8 6.7l-25.8 194.3c-.2 1.8 2.1 3.3 5.1 3.3 3.1 0 5.8-1.5 6.1-3.3l30.3-194.3c.6-3.7-2.5-6.7-6.9-6.7z"/><linearGradient id="B" gradientUnits="userSpaceOnUse" x1="321.232" y1="149.738" x2="321.232" y2="303.568"><stop offset="0" stop-color="#F7941E"/><stop offset="1" stop-color="#D9356B"/></linearGradient><path fill="url(#B)" d="M333.5 174c-4.1 0-7.9 2.6-8.4 5.9l-22.5 136.7c-.3 1.9 2 3.5 5.1 3.5 3.1 0 6-1.6 6.4-3.5l25.7-136.7c.6-3.2-2.2-5.9-6.3-5.9z"/><linearGradient id="C" gradientUnits="userSpaceOnUse" x1="339.073" y1="149.738" x2="339.073" y2="303.568"><stop offset="0" stop-color="#F7941E"/><stop offset="1" stop-color="#D9356B"/></linearGradient><path fill="url(#C)" d="M348.4 200.3c-3.9 0-7.6 2.4-8.2 5.4l-16.4 83.5c-.4 2.2 1.9 3.9 5.3 3.9 3.3 0 6.4-1.8 6.9-3.9l18.4-83.5c.6-3-2.1-5.4-6-5.4z"/><linearGradient id="D" gradientUnits="userSpaceOnUse" x1="208.846" y1="149.738" x2="208.846" y2="303.568"><stop offset="0" stop-color="#F7941E"/><stop offset="1" stop-color="#D9356B"/></linearGradient><path fill="url(#D)" d="M208.7 10.9c-5.2 0-9.2 4.2-9.1 9.2.1 5 4.3 9 9.4 9 5 0 9.1-4 9.1-9-.1-5.1-4.2-9.2-9.4-9.2z"/><linearGradient id="E" gradientUnits="userSpaceOnUse" x1="121.981" y1="149.738" x2="121.981" y2="303.568"><stop offset="0" stop-color="#F7941E"/><stop offset="1" stop-color="#D9356B"/></linearGradient><path fill="url(#E)" d="M121 112.5c-4.5 0-7.6 3.2-7 7 .6 3.8 4.6 6.9 9.1 6.9s7.6-3.1 7.1-6.9c-.7-3.9-4.7-7-9.2-7z"/><linearGradient id="F" gradientUnits="userSpaceOnUse" x1="281.688" y1="149.738" x2="281.688" y2="303.568"><stop offset="0" stop-color="#F7941E"/><stop offset="1" stop-color="#D9356B"/></linearGradient><path fill="url(#F)" d="M282.3 50c-4.9 0-9.1 3.8-9.4 8.3-.3 4.5 3.3 8.2 8.1 8.2s9-3.6 9.4-8.2c.5-4.5-3.2-8.3-8.1-8.3z"/><linearGradient id="G" gradientUnits="userSpaceOnUse" x1="322.713" y1="149.738" x2="322.713" y2="303.568"><stop offset="0" stop-color="#F7941E"/><stop offset="1" stop-color="#D9356B"/></linearGradient><path fill="url(#G)" d="M323.8 100.5c-4.6 0-8.7 3.3-9.2 7.3s2.7 7.1 7.2 7.1 8.6-3.2 9.2-7.1c.5-4.1-2.7-7.3-7.2-7.3z"/><linearGradient id="H" gradientUnits="userSpaceOnUse" x1="233.131" y1="149.738" x2="233.131" y2="303.568"><stop offset="0" stop-color="#F7941E"/><stop offset="1" stop-color="#D9356B"/></linearGradient><path fill="url(#H)" d="M233.3 75.9c-4.7 0-8.6 3.5-8.6 7.8 0 4.2 3.7 7.6 8.4 7.6 4.6 0 8.5-3.4 8.6-7.6 0-4.3-3.7-7.8-8.4-7.8z"/><g fill="#fff"><path d="M114 378.8c0-2.4 1.3-3.5 4-3.5.9 0 1.8.3 2.6.8s1.1 1.4 1.1 2.5v36.4c0 1.2-.3 2.1-1 2.6s-1.6.8-2.8.8c-2.6 0-3.9-1.1-3.9-3.3v-36.3zM126 402.4c0-2.6.4-5 1.1-7.1.7-2.1 1.7-3.9 3-5.3s2.9-2.6 4.6-3.4c1.8-.8 3.8-1.2 6-1.2s4.2.4 6 1.1c1.8.7 3.3 1.8 4.6 3.2 1.3 1.4 2.3 3.2 3 5.2.7 2.1 1 4.5 1 7.3 0 2.6-.4 5-1.1 7.1-.7 2.1-1.7 3.8-3 5.3-1.3 1.4-2.8 2.5-4.6 3.3-1.8.8-3.8 1.1-6 1.1-2.3 0-4.3-.4-6.1-1.1-1.8-.8-3.3-1.9-4.6-3.3-1.3-1.4-2.3-3.2-2.9-5.2-.6-2.1-1-4.4-1-7zm14.7 10c2.2 0 3.9-.8 5.2-2.4 1.2-1.6 1.9-4.1 1.9-7.5 0-3.5-.6-6-1.8-7.7-1.2-1.7-3-2.5-5.2-2.5-2.1 0-3.8.8-5 2.5-1.2 1.7-1.8 4.2-1.8 7.5 0 3.5.6 6 1.8 7.6 1.1 1.7 2.8 2.5 4.9 2.5zM158.3 402.4c0-2.6.4-5 1.1-7.1.7-2.1 1.7-3.9 3-5.3s2.9-2.6 4.6-3.4c1.8-.8 3.8-1.2 6-1.2s4.2.4 6 1.1c1.8.7 3.3 1.8 4.6 3.2 1.3 1.4 2.3 3.2 3 5.2.7 2.1 1 4.5 1 7.3 0 2.6-.4 5-1.1 7.1-.7 2.1-1.7 3.8-3 5.3-1.3 1.4-2.8 2.5-4.6 3.3-1.8.8-3.8 1.1-6 1.1-2.3 0-4.3-.4-6.1-1.1-1.8-.8-3.3-1.9-4.6-3.3-1.3-1.4-2.3-3.2-2.9-5.2-.7-2.1-1-4.4-1-7zm14.6 10c2.2 0 3.9-.8 5.2-2.4 1.2-1.6 1.9-4.1 1.9-7.5 0-3.5-.6-6-1.8-7.7-1.2-1.7-3-2.5-5.2-2.5-2.1 0-3.8.8-5 2.5-1.2 1.7-1.8 4.2-1.8 7.5 0 3.5.6 6 1.8 7.6 1.1 1.7 2.8 2.5 4.9 2.5zM192 389.8c0-1.1.3-1.9.9-2.6.6-.7 1.6-1 3-1 .4 0 .9 0 1.3.1s.8.2 1.2.4c.3.2.6.5.8.9.2.4.3.9.3 1.6v1.2c.3-.5.7-1 1.2-1.6.5-.6 1.1-1.1 1.8-1.5s1.5-.8 2.4-1.1c.9-.3 1.9-.5 3-.5 2 0 3.8.4 5.3 1.3s2.8 2 3.8 3.5 1.8 3.3 2.3 5.3c.5 2.1.8 4.3.8 6.7 0 2.4-.3 4.7-.9 6.7-.6 2.1-1.4 3.8-2.5 5.3s-2.4 2.6-4 3.5c-1.6.8-3.4 1.3-5.4 1.3-1.5 0-2.7-.2-3.7-.6-1-.4-1.8-.8-2.4-1.3-.7-.6-1.3-1.2-1.7-2v12.3c0 1.3-.3 2.2-.9 2.7-.6.5-1.6.8-2.9.8-2.4 0-3.7-1.1-3.7-3.4v-38zm13.7 22.6c2.2 0 3.8-.9 4.9-2.7 1.1-1.8 1.6-4.2 1.6-7.3 0-3-.5-5.4-1.6-7.2-1.1-1.8-2.7-2.7-4.9-2.7-1.1 0-2 .3-2.8.8s-1.5 1.2-2 2.1c-.5.9-.9 2-1.2 3.2-.3 1.2-.4 2.5-.4 3.9 0 3.1.5 5.5 1.6 7.3 1.1 1.7 2.7 2.6 4.8 2.6zM224.4 389.8c0-1.1.3-2 .9-2.7.6-.7 1.6-1 3-1 1 0 1.8.2 2.6.6.7.4 1.1 1.3 1.1 2.7v.7c.8-1.3 1.9-2.4 3.3-3.3 1.4-.9 3.1-1.4 5.1-1.4 3.7 0 6.4 1.3 8.1 3.8.9 1.4 1.4 2.9 1.6 4.7.2 1.7.3 3.3.3 4.9v16.3c0 1.2-.3 2-.9 2.6-.6.5-1.6.8-2.9.8-1.1 0-2-.3-2.7-.8-.7-.5-1.1-1.4-1.1-2.6v-16.4c0-1.7-.2-3.1-.5-3.9-.3-.8-.8-1.4-1.5-1.7-.7-.3-1.5-.5-2.4-.5-1 0-1.8.2-2.5.5s-1.3.7-1.8 1.2-.8 1-1.1 1.6c-.3.6-.4 1.1-.5 1.6-.2.7-.3 1.6-.3 2.5v15c0 1.3-.3 2.2-.9 2.7-.6.5-1.6.8-3 .8-1.1 0-2.1-.3-2.7-.8s-1-1.4-1-2.6v-25.3zM255.8 378.3c0-1.3.4-2.4 1.2-3.2.8-.9 1.8-1.3 3.1-1.3 1.1 0 2 .4 2.9 1.1.9.7 1.3 1.9 1.3 3.4 0 1.4-.4 2.5-1.2 3.3-.8.8-1.8 1.2-3.1 1.2s-2.3-.4-3.1-1.2c-.8-.8-1.1-1.9-1.1-3.3zm.3 11.5c0-2.4 1.3-3.7 4-3.7.9 0 1.8.3 2.6.8s1.1 1.4 1.1 2.5v25.6c0 1.2-.3 2.1-1 2.6s-1.6.8-2.8.8c-2.6 0-3.9-1.1-3.9-3.3v-25.3zM269.7 389.8c0-1.1.3-2 .9-2.7.6-.7 1.6-1 3-1 1 0 1.8.2 2.6.6.7.4 1.1 1.3 1.1 2.7v.7c.8-1.3 1.9-2.4 3.3-3.3 1.4-.9 3.1-1.4 5.1-1.4 3.7 0 6.4 1.3 8.1 3.8.9 1.4 1.4 2.9 1.6 4.7.2 1.7.3 3.3.3 4.9v16.3c0 1.2-.3 2-.9 2.6-.6.5-1.6.8-2.9.8-1.1 0-2-.3-2.7-.8-.7-.5-1.1-1.4-1.1-2.6v-16.4c0-1.7-.2-3.1-.5-3.9-.3-.8-.8-1.4-1.5-1.7-.7-.3-1.5-.5-2.4-.5-1 0-1.8.2-2.5.5s-1.3.7-1.8 1.2-.8 1-1.1 1.6c-.3.6-.4 1.1-.5 1.6-.2.7-.3 1.6-.3 2.5v15c0 1.3-.3 2.2-.9 2.7-.6.5-1.6.8-3 .8-1.1 0-2.1-.3-2.7-.8s-1-1.4-1-2.6v-25.3zM307.8 404.4c.2 5.3 2.5 8 7 8 1.3 0 2.3-.2 3.1-.5.8-.3 1.6-.7 2.5-1.3l1.5-1c.5-.3 1.1-.5 1.7-.5.8 0 1.5.3 2.1 1 .7.7 1 1.5 1 2.6s-.4 2-1.2 2.8c-.8.8-1.8 1.5-3.1 2-1.2.5-2.5.9-3.9 1.2-1.4.2-2.7.4-3.9.4-4.6 0-8.2-1.4-10.7-4.1-2.5-2.7-3.8-6.8-3.8-12.3 0-2.2.3-4.3.8-6.3.5-2.1 1.4-3.9 2.6-5.5 1.2-1.6 2.7-2.9 4.5-3.9 1.8-1 3.9-1.5 6.5-1.5 4 0 7.2 1.4 9.6 4.1 2.4 2.7 3.6 6.6 3.6 11.8 0 1.2-.3 2-1 2.4-.7.4-1.6.7-2.7.7h-16.2zm12-6c0-.9-.1-1.7-.3-2.4-.2-.8-.6-1.5-1-2-.5-.6-1.1-1.1-1.8-1.4s-1.6-.5-2.6-.5c-1.5 0-2.9.6-4.1 1.7-1.2 1.1-1.8 2.7-2 4.8h11.8z"/></g></svg>