<svg width="270" height="70" viewBox="0 0 270 70" xmlns="http://www.w3.org/2000/svg" xmlns:sketch="http://www.bohemiancoding.com/sketch/ns"><title>Artboard 2</title><desc>Created with Sketch.</desc><g sketch:type="MSPage" fill="none"><g sketch:type="MSLayerGroup" fill="#fff"><path d="M89.982 11.631c13.934 0 22.908 9.23 22.908 23.328 0 14.009-8.974 23.234-22.908 23.234-13.83 0-22.812-9.225-22.812-23.234 0-14.098 8.982-23.328 22.812-23.328m0 37.424c8.299 0 10.771-7.09 10.771-14.096 0-7.088-2.472-14.183-10.771-14.183-8.197 0-10.669 7.095-10.669 14.183 0 7.006 2.472 14.096 10.669 14.096" sketch:type="MSShapeGroup"/><path d="M163.976 37.871c.342 7.676 4.103 11.186 10.859 11.186 4.859 0 8.792-2.99 9.571-5.723h10.67c-3.41 10.42-10.67 14.859-20.672 14.859-13.924 0-22.555-9.568-22.555-23.235 0-13.25 9.132-23.329 22.555-23.329 15.041 0 22.294 12.65 21.436 26.242h-31.864zm19.737-7.691c-1.106-6.166-3.752-9.404-9.655-9.404-7.688 0-9.91 5.977-10.082 9.404h19.737z" sketch:type="MSShapeGroup"/><path d="M37.446 11.631c-12.072 0-21.876 9.796-21.876 21.875v23.496h12.675v-25.122c0-5.078 4.123-9.193 9.201-9.193 5.073 0 9.192 4.115 9.192 9.193v25.122h12.673v-23.496c0-13.363-9.792-21.875-21.865-21.875" sketch:type="MSShapeGroup"/><path d="M120.685 33.506v23.496h12.682v-22.676c0-5.077 4.11-9.195 9.193-9.195v-.014c1.312-.028 4.759.014 4.759.014v-13.37l-4.759-.13c-.243-.011-.485-.014-.724-.014-11.744 0-21.151 10.051-21.151 21.889" sketch:type="MSShapeGroup"/><path d="M163.976 37.871v.08h.007l-.007-.08" sketch:type="MSShapeGroup"/><path d="M163.976 37.951h.007l-.008-.08.001.08" sketch:type="MSShapeGroup"/><path d="M196.644 12.727l.013.019 19.435 22.738 6.631 8.311 4.197-5.386v-5.85l-16.732-19.814-.011-.018h-13.533" sketch:type="MSShapeGroup"/><path d="M215.05 36.712l-18.393 21.508-.013.017h13.533l.011-.014 11.517-13.257-5.613-7.034-1.042-1.22" sketch:type="MSShapeGroup"/><path d="M260.43 58.237l-.013-.019-19.435-22.738-6.631-8.31-4.197 5.385v5.85l16.732 19.815.011.017h13.533" sketch:type="MSShapeGroup"/><path d="M242.024 34.252l18.393-21.507.013-.018h-13.533l-.011.014-11.517 13.257 5.613 7.035 1.042 1.219" sketch:type="MSShapeGroup"/></g></g></svg>